HIERARCHY
ROOT Hips
{
	OFFSET 51.476898 -7.095299 56.169800
	CHANNELS 6 Xposition Yposition Zposition Xrotation Yrotation Zrotation
	JOINT spine
	{
		OFFSET 0.000000 -0.367607 6.392601
		CHANNELS 3 Xrotation Yrotation Zrotation
		JOINT spine1
		{
			OFFSET 0.000000 -0.000002 9.176109
			CHANNELS 3 Xrotation Yrotation Zrotation
			JOINT spine2
			{
				OFFSET 0.000000 -0.000001 8.792381
				CHANNELS 3 Xrotation Yrotation Zrotation
				JOINT Neck
				{
					OFFSET 0.000000 -1.076243 22.573700
					CHANNELS 3 Xrotation Yrotation Zrotation
					JOINT Head
					{
						OFFSET 0.000000 -0.000001 6.820107
						CHANNELS 3 Xrotation Yrotation Zrotation
						End Site
						{
							OFFSET 0.000000 5.444268 16.508499
						}
					}
				}
				JOINT RightShoulder
				{
					OFFSET -3.702209 0.515507 9.495087
					CHANNELS 3 Xrotation Yrotation Zrotation
					JOINT RightArm
					{
						OFFSET 0.000000 -0.000002 12.453697
						CHANNELS 3 Xrotation Yrotation Zrotation
						JOINT RightArmRoll
						{
							OFFSET 0.000000 -0.000001 6.286858
							CHANNELS 3 Xrotation Yrotation Zrotation
							JOINT RightForeArm
							{
								OFFSET 0.000000 -0.000003 18.311401
								CHANNELS 3 Xrotation Yrotation Zrotation
								JOINT RightForeArmRoll
								{
									OFFSET 0.000000 -0.000001 7.054832
									CHANNELS 3 Xrotation Yrotation Zrotation
									JOINT RightHand
									{
										OFFSET 0.000000 -0.000002 14.157501
										CHANNELS 3 Xrotation Yrotation Zrotation
										End Site
										{
											OFFSET 0.000000 0.000000 0.100006
										}
									}
								}
							}
						}
					}
				}
				JOINT LeftShoulder
				{
					OFFSET 3.702209 0.515507 9.495087
					CHANNELS 3 Xrotation Yrotation Zrotation
					JOINT LeftArm
					{
						OFFSET 0.000000 -0.000002 12.453697
						CHANNELS 3 Xrotation Yrotation Zrotation
						JOINT LeftArmRoll
						{
							OFFSET 0.000000 -0.000001 6.286850
							CHANNELS 3 Xrotation Yrotation Zrotation
							JOINT LeftForeArm
							{
								OFFSET 0.000000 -0.000003 18.311401
								CHANNELS 3 Xrotation Yrotation Zrotation
								JOINT LeftForeArmRoll
								{
									OFFSET 0.000000 -0.000001 7.054825
									CHANNELS 3 Xrotation Yrotation Zrotation
									JOINT LeftHand
									{
										OFFSET 0.000000 -0.000002 14.157501
										CHANNELS 3 Xrotation Yrotation Zrotation
										End Site
										{
											OFFSET 0.000000 0.000000 0.100006
										}
									}
								}
							}
						}
					}
				}
			}
		}
	}
	JOINT RightUpLeg
	{
		OFFSET -5.666161 0.871610 -1.039028
		CHANNELS 3 Xrotation Yrotation Zrotation
		JOINT RightUpLegRoll
		{
			OFFSET 0.000000 -0.000003 16.600498
			CHANNELS 3 Xrotation Yrotation Zrotation
			JOINT RightLeg
			{
				OFFSET 0.000000 0.000004 -20.557198
				CHANNELS 3 Xrotation Yrotation Zrotation
				JOINT RightLegRoll
				{
					OFFSET 0.000000 -0.000004 20.624397
					CHANNELS 3 Xrotation Yrotation Zrotation
					JOINT RightFoot
					{
						OFFSET 0.000000 -0.000002 17.166405
						CHANNELS 3 Xrotation Yrotation Zrotation
						JOINT RightToeBase
						{
							OFFSET 0.000000 -0.000002 14.350197
							CHANNELS 3 Xrotation Yrotation Zrotation
							End Site
							{
								OFFSET 0.006081 0.801060 6.949699
							}
						}
					}
				}
			}
		}
	}
	JOINT LeftUpLeg
	{
		OFFSET 5.666161 0.871610 -1.039028
		CHANNELS 3 Xrotation Yrotation Zrotation
		JOINT LeftUpLegRoll
		{
			OFFSET 0.000000 -0.000003 16.600597
			CHANNELS 3 Xrotation Yrotation Zrotation
			JOINT LeftLeg
			{
				OFFSET 0.000000 -0.000003 20.557098
				CHANNELS 3 Xrotation Yrotation Zrotation
				JOINT LeftLegRoll
				{
					OFFSET 0.000000 -0.000003 20.815102
					CHANNELS 3 Xrotation Yrotation Zrotation
					JOINT LeftFoot
					{
						OFFSET 0.000000 -0.000002 16.975700
						CHANNELS 3 Xrotation Yrotation Zrotation
						JOINT LeftToeBase
						{
							OFFSET 0.000000 -0.000002 14.350204
							CHANNELS 3 Xrotation Yrotation Zrotation
							End Site
							{
								OFFSET -0.027260 0.801059 6.949707
							}
						}
					}
				}
			}
		}
	}
}
MOTION
Frames: 6
Frame Time: 0.041667
51.338001 -7.671372 57.439995 12.207373 -0.198086 3.749174 1.502786 0.489598 -0.763284 7.018561 0.950817 -1.546872 8.663492 0.932224 -1.558146 -3.052742 -4.797774 2.499141 -0.200848 2.106616 3.484674 7.290141 -51.554551 9.859910 -54.032209 -125.469878 -82.542283 0.000002 -0.000001 -0.000003 77.158789 -2.553763 -0.447330 0.000002 0.000011 -3.000003 -5.000200 -7.998805 0.000176 -0.676341 41.655019 -1.543221 -49.506642 128.375099 74.169229 -0.000002 -0.000023 0.000006 72.904968 5.281171 0.809201 0.000001 -0.000002 3.000000 -5.000226 7.998724 -0.000177 -90.300838 -174.071510 2.012625 -179.999991 0.000005 -0.882005 106.027069 -0.023193 -3.029738 0.000002 -0.000000 1.369880 66.371755 7.001101 2.022753 25.457017 -7.346684 0.005110 -91.979863 177.563253 0.165808 -0.000004 -0.000004 -1.000080 -76.378078 -2.135660 1.067065 -0.000004 -0.000001 -1.672651 64.574015 -7.277444 -1.519574 25.457915 7.354820 -0.001558 
51.350700 -7.612363 57.412201 12.092975 -0.197604 3.773356 1.498253 0.489188 -0.758654 7.008830 0.950241 -1.537068 8.653769 0.931765 -1.548345 -2.946191 -4.849183 2.475230 -0.205854 2.162275 3.463688 7.166041 -51.756073 9.673220 -54.094371 -125.451983 -82.573497 0.000002 -0.000000 -0.000006 77.150204 -2.552647 -0.447796 0.000001 0.000011 -3.000002 -5.000198 -7.998804 0.000174 -0.631039 41.737681 -1.589494 -49.560669 128.353243 74.133466 -0.000003 -0.000025 0.000005 72.868228 5.279246 0.803346 -0.000003 -0.000002 3.000000 -5.000230 7.998722 -0.000178 -90.291139 -174.011951 2.012174 -179.999991 0.000005 -0.883002 106.005677 -0.022060 -3.031896 0.000003 -0.000001 1.371750 66.372555 7.002091 2.019108 25.457010 -7.346685 0.005110 -91.978954 177.559442 0.166958 -0.000003 -0.000004 -1.001190 -76.386336 -2.141352 1.062089 -0.000004 -0.000001 -1.674660 64.566017 -7.279096 -1.515984 25.457918 7.354820 -0.001559 
51.355503 -7.549251 57.403698 11.979270 -0.196455 3.797402 1.493644 0.488614 -0.754037 6.998955 0.949338 -1.527281 8.643884 0.930980 -1.538550 -2.841235 -4.898820 2.451980 -0.210263 2.216494 3.442973 7.041009 -51.953393 9.486150 -54.150679 -125.438227 -82.592512 0.000002 -0.000001 -0.000005 77.132889 -2.553829 -0.445919 -0.000001 0.000012 -2.999999 -5.000199 -7.998801 0.000177 -0.587774 41.819404 -1.633333 -49.612233 128.333572 74.095067 -0.000001 -0.000025 0.000008 72.826503 5.278467 0.796394 0.000000 -0.000005 3.000000 -5.000225 7.998719 -0.000182 -90.278736 -173.951394 2.012772 -179.999991 0.000005 -0.883999 105.987877 -0.022585 -3.033821 0.000002 -0.000001 1.373530 66.374105 7.003130 2.015329 25.457011 -7.346685 0.005110 -91.975129 177.554920 0.168952 -0.000004 -0.000004 -1.002240 -76.390263 -2.146390 1.057575 -0.000004 -0.000001 -1.676500 64.558012 -7.280755 -1.512395 25.457920 7.354822 -0.001559 
51.346298 -7.499522 57.361694 11.865471 -0.194255 3.820874 1.489124 0.487849 -0.749535 6.989283 0.948044 -1.517720 8.634227 0.929800 -1.528970 -2.738200 -4.946146 2.429825 -0.213504 2.268444 3.422941 6.916729 -52.144499 9.301107 -54.200976 -125.428569 -82.598946 0.000002 0.000000 -0.000007 77.105801 -2.557691 -0.441369 -0.000001 0.000012 -2.999999 -5.000198 -7.998806 0.000174 -0.548403 41.898392 -1.672544 -49.659614 128.316319 74.053731 -0.000002 -0.000025 0.000007 72.780310 5.278852 0.788232 -0.000001 -0.000005 3.000001 -5.000228 7.998719 -0.000180 -90.262739 -173.890824 2.014980 -179.999991 0.000005 -0.884996 105.973172 -0.025320 -3.039451 0.000002 -0.000000 1.375230 66.376284 7.004210 2.011316 25.457011 -7.346684 0.005110 -91.967869 177.549210 0.171498 -0.000005 -0.000005 -1.003250 -76.390796 -2.151183 1.053248 -0.000004 -0.000001 -1.678189 64.550096 -7.282385 -1.508894 25.457920 7.354821 -0.001558 
51.355900 -7.431033 57.338295 11.750667 -0.190620 3.843281 1.484857 0.486863 -0.745247 6.980177 0.946294 -1.508603 8.625116 0.928158 -1.519831 -2.637401 -4.990615 2.409235 -0.214996 2.317323 3.403984 6.794907 -52.327210 9.120484 -54.240346 -125.425059 -82.586379 0.000001 -0.000002 -0.000004 77.067586 -2.564641 -0.433818 0.000001 0.000008 -3.000002 -5.000200 -7.998806 0.000175 -0.514791 41.973350 -1.704929 -49.701531 128.301934 74.009437 -0.000001 -0.000023 0.000004 72.730340 5.280254 0.779204 -0.000002 -0.000001 3.000002 -5.000224 7.998724 -0.000179 -90.242235 -173.831142 2.018750 -179.999991 0.000005 -0.885994 105.961274 -0.029151 -3.043917 0.000002 -0.000000 1.376840 66.378784 7.005289 2.007482 25.457017 -7.346685 0.005110 -91.956790 177.541642 0.176291 -0.000003 -0.000004 -1.004220 -76.388836 -2.156148 1.048808 -0.000004 -0.000001 -1.679739 64.542296 -7.284030 -1.505388 25.457918 7.354819 -0.001558 
51.383701 -7.387611 57.330399 11.633962 -0.185162 3.864203 1.481023 0.485626 -0.741273 6.971992 0.944024 -1.500128 8.616941 0.925991 -1.511327 -2.539161 -5.031681 2.390654 -0.214154 2.362323 3.386508 6.677313 -52.499525 8.946819 -54.268551 -125.427572 -82.554393 0.000001 -0.000001 -0.000003 77.017404 -2.575041 -0.423041 0.000001 0.000007 -3.000002 -5.000200 -7.998804 0.000177 -0.488823 42.042669 -1.728278 -49.734309 128.291921 73.959310 -0.000004 -0.000023 0.000005 72.677126 5.282690 0.769284 -0.000002 -0.000006 3.000000 -5.000227 7.998723 -0.000177 -90.216315 -173.773550 2.024830 -179.999991 0.000005 -0.887004 105.951759 -0.034627 -3.051142 0.000003 -0.000000 1.378370 66.381482 7.006313 2.003725 25.457013 -7.346686 0.005110 -91.941265 177.531780 0.181520 -0.000004 -0.000005 -1.005170 -76.385045 -2.161732 1.043977 -0.000004 -0.000001 -1.681170 64.534796 -7.285641 -1.501856 25.457918 7.354821 -0.001559 
